<mxfile host="app.diagrams.net" agent="Mozilla/5.0 (Macintosh; Intel Mac OS X 10_15_7) AppleWebKit/537.36 (KHTML, like Gecko) Chrome/133.0.0.0 Safari/537.36" version="26.0.16">
  <diagram id="C5RBs43oDa-KdzZeNtuy" name="Page-1">
    <mxGraphModel dx="1565" dy="1944" grid="1" gridSize="10" guides="1" tooltips="1" connect="1" arrows="1" fold="1" page="1" pageScale="1" pageWidth="827" pageHeight="1169" math="0" shadow="0">
      <root>
        <mxCell id="WIyWlLk6GJQsqaUBKTNV-0" />
        <mxCell id="WIyWlLk6GJQsqaUBKTNV-1" parent="WIyWlLk6GJQsqaUBKTNV-0" />
        <mxCell id="Kz519cWDDe5uX1cGoVlB-41" value="Manage customer info" style="shape=ellipse;html=1;dashed=0;whiteSpace=wrap;perimeter=ellipsePerimeter;" parent="WIyWlLk6GJQsqaUBKTNV-1" vertex="1">
          <mxGeometry x="270" y="-1080" width="150" height="50" as="geometry" />
        </mxCell>
        <mxCell id="Kz519cWDDe5uX1cGoVlB-42" value="Create delivery order" style="shape=ellipse;html=1;dashed=0;whiteSpace=wrap;perimeter=ellipsePerimeter;" parent="WIyWlLk6GJQsqaUBKTNV-1" vertex="1">
          <mxGeometry x="270" y="-1000" width="120" height="50" as="geometry" />
        </mxCell>
        <mxCell id="Kz519cWDDe5uX1cGoVlB-43" value="Generate delivery note" style="shape=ellipse;html=1;dashed=0;whiteSpace=wrap;perimeter=ellipsePerimeter;" parent="WIyWlLk6GJQsqaUBKTNV-1" vertex="1">
          <mxGeometry x="260" y="-910" width="140" height="50" as="geometry" />
        </mxCell>
        <mxCell id="Kz519cWDDe5uX1cGoVlB-45" value="Update delivery status" style="shape=ellipse;html=1;dashed=0;whiteSpace=wrap;perimeter=ellipsePerimeter;" parent="WIyWlLk6GJQsqaUBKTNV-1" vertex="1">
          <mxGeometry x="430" y="-1000" width="140" height="50" as="geometry" />
        </mxCell>
        <mxCell id="Kz519cWDDe5uX1cGoVlB-46" value="Track delivery status" style="shape=ellipse;html=1;dashed=0;whiteSpace=wrap;perimeter=ellipsePerimeter;" parent="WIyWlLk6GJQsqaUBKTNV-1" vertex="1">
          <mxGeometry x="435" y="-910" width="130" height="50" as="geometry" />
        </mxCell>
        <mxCell id="Kz519cWDDe5uX1cGoVlB-58" value="include" style="text;html=1;align=center;verticalAlign=middle;whiteSpace=wrap;rounded=0;" parent="WIyWlLk6GJQsqaUBKTNV-1" vertex="1">
          <mxGeometry x="330" y="-940" width="60" height="30" as="geometry" />
        </mxCell>
        <mxCell id="Kz519cWDDe5uX1cGoVlB-59" value="extend" style="text;html=1;align=center;verticalAlign=middle;whiteSpace=wrap;rounded=0;" parent="WIyWlLk6GJQsqaUBKTNV-1" vertex="1">
          <mxGeometry x="505" y="-940" width="60" height="30" as="geometry" />
        </mxCell>
        <mxCell id="Kz519cWDDe5uX1cGoVlB-60" value="DeliveryOrder" style="swimlane;fontStyle=1;align=center;verticalAlign=top;childLayout=stackLayout;horizontal=1;startSize=26;horizontalStack=0;resizeParent=1;resizeParentMax=0;resizeLast=0;collapsible=1;marginBottom=0;whiteSpace=wrap;html=1;" parent="WIyWlLk6GJQsqaUBKTNV-1" vertex="1">
          <mxGeometry x="310" y="-250" width="160" height="170" as="geometry" />
        </mxCell>
        <mxCell id="Kz519cWDDe5uX1cGoVlB-61" value="- order_id : str&lt;div&gt;- recipient: Recipient&lt;/div&gt;&lt;div&gt;- package: Package&lt;/div&gt;&lt;div&gt;- delivery_status: str&lt;/div&gt;" style="text;strokeColor=none;fillColor=none;align=left;verticalAlign=top;spacingLeft=4;spacingRight=4;overflow=hidden;rotatable=0;points=[[0,0.5],[1,0.5]];portConstraint=eastwest;whiteSpace=wrap;html=1;" parent="Kz519cWDDe5uX1cGoVlB-60" vertex="1">
          <mxGeometry y="26" width="160" height="84" as="geometry" />
        </mxCell>
        <mxCell id="Kz519cWDDe5uX1cGoVlB-62" value="" style="line;strokeWidth=1;fillColor=none;align=left;verticalAlign=middle;spacingTop=-1;spacingLeft=3;spacingRight=3;rotatable=0;labelPosition=right;points=[];portConstraint=eastwest;strokeColor=inherit;" parent="Kz519cWDDe5uX1cGoVlB-60" vertex="1">
          <mxGeometry y="110" width="160" height="8" as="geometry" />
        </mxCell>
        <mxCell id="Kz519cWDDe5uX1cGoVlB-63" value="+ create_order()&lt;div&gt;+ update_status()&lt;/div&gt;" style="text;strokeColor=none;fillColor=none;align=left;verticalAlign=top;spacingLeft=4;spacingRight=4;overflow=hidden;rotatable=0;points=[[0,0.5],[1,0.5]];portConstraint=eastwest;whiteSpace=wrap;html=1;" parent="Kz519cWDDe5uX1cGoVlB-60" vertex="1">
          <mxGeometry y="118" width="160" height="52" as="geometry" />
        </mxCell>
        <mxCell id="Kz519cWDDe5uX1cGoVlB-64" value="Recipient" style="swimlane;fontStyle=1;align=center;verticalAlign=top;childLayout=stackLayout;horizontal=1;startSize=26;horizontalStack=0;resizeParent=1;resizeParentMax=0;resizeLast=0;collapsible=1;marginBottom=0;whiteSpace=wrap;html=1;" parent="WIyWlLk6GJQsqaUBKTNV-1" vertex="1">
          <mxGeometry x="150" y="-30" width="160" height="150" as="geometry" />
        </mxCell>
        <mxCell id="Kz519cWDDe5uX1cGoVlB-65" value="- name: str&lt;div&gt;- contact: str&lt;/div&gt;&lt;div&gt;- address: str&lt;/div&gt;&lt;div&gt;&lt;br&gt;&lt;/div&gt;" style="text;strokeColor=none;fillColor=none;align=left;verticalAlign=top;spacingLeft=4;spacingRight=4;overflow=hidden;rotatable=0;points=[[0,0.5],[1,0.5]];portConstraint=eastwest;whiteSpace=wrap;html=1;" parent="Kz519cWDDe5uX1cGoVlB-64" vertex="1">
          <mxGeometry y="26" width="160" height="74" as="geometry" />
        </mxCell>
        <mxCell id="Kz519cWDDe5uX1cGoVlB-66" value="" style="line;strokeWidth=1;fillColor=none;align=left;verticalAlign=middle;spacingTop=-1;spacingLeft=3;spacingRight=3;rotatable=0;labelPosition=right;points=[];portConstraint=eastwest;strokeColor=inherit;" parent="Kz519cWDDe5uX1cGoVlB-64" vertex="1">
          <mxGeometry y="100" width="160" height="8" as="geometry" />
        </mxCell>
        <mxCell id="Kz519cWDDe5uX1cGoVlB-67" value="+ get_details()&lt;div&gt;+ update_info()&lt;/div&gt;" style="text;strokeColor=none;fillColor=none;align=left;verticalAlign=top;spacingLeft=4;spacingRight=4;overflow=hidden;rotatable=0;points=[[0,0.5],[1,0.5]];portConstraint=eastwest;whiteSpace=wrap;html=1;" parent="Kz519cWDDe5uX1cGoVlB-64" vertex="1">
          <mxGeometry y="108" width="160" height="42" as="geometry" />
        </mxCell>
        <mxCell id="Kz519cWDDe5uX1cGoVlB-68" value="Package" style="swimlane;fontStyle=1;align=center;verticalAlign=top;childLayout=stackLayout;horizontal=1;startSize=26;horizontalStack=0;resizeParent=1;resizeParentMax=0;resizeLast=0;collapsible=1;marginBottom=0;whiteSpace=wrap;html=1;" parent="WIyWlLk6GJQsqaUBKTNV-1" vertex="1">
          <mxGeometry x="470" y="-30" width="160" height="150" as="geometry" />
        </mxCell>
        <mxCell id="Kz519cWDDe5uX1cGoVlB-69" value="- package_id: str&lt;div&gt;- dimensions: str&lt;/div&gt;&lt;div&gt;- weight: float&lt;/div&gt;" style="text;strokeColor=none;fillColor=none;align=left;verticalAlign=top;spacingLeft=4;spacingRight=4;overflow=hidden;rotatable=0;points=[[0,0.5],[1,0.5]];portConstraint=eastwest;whiteSpace=wrap;html=1;" parent="Kz519cWDDe5uX1cGoVlB-68" vertex="1">
          <mxGeometry y="26" width="160" height="84" as="geometry" />
        </mxCell>
        <mxCell id="Kz519cWDDe5uX1cGoVlB-70" value="" style="line;strokeWidth=1;fillColor=none;align=left;verticalAlign=middle;spacingTop=-1;spacingLeft=3;spacingRight=3;rotatable=0;labelPosition=right;points=[];portConstraint=eastwest;strokeColor=inherit;" parent="Kz519cWDDe5uX1cGoVlB-68" vertex="1">
          <mxGeometry y="110" width="160" height="8" as="geometry" />
        </mxCell>
        <mxCell id="Kz519cWDDe5uX1cGoVlB-71" value="+ get_package_details()" style="text;strokeColor=none;fillColor=none;align=left;verticalAlign=top;spacingLeft=4;spacingRight=4;overflow=hidden;rotatable=0;points=[[0,0.5],[1,0.5]];portConstraint=eastwest;whiteSpace=wrap;html=1;" parent="Kz519cWDDe5uX1cGoVlB-68" vertex="1">
          <mxGeometry y="118" width="160" height="32" as="geometry" />
        </mxCell>
        <mxCell id="Kz519cWDDe5uX1cGoVlB-72" value="DeliveryNote" style="swimlane;fontStyle=1;align=center;verticalAlign=top;childLayout=stackLayout;horizontal=1;startSize=26;horizontalStack=0;resizeParent=1;resizeParentMax=0;resizeLast=0;collapsible=1;marginBottom=0;whiteSpace=wrap;html=1;" parent="WIyWlLk6GJQsqaUBKTNV-1" vertex="1">
          <mxGeometry x="310" y="-490" width="160" height="150" as="geometry" />
        </mxCell>
        <mxCell id="Kz519cWDDe5uX1cGoVlB-73" value="- note_id: str&lt;div&gt;- order: DeliveryOrder&lt;/div&gt;&lt;div&gt;- date_issued: str&lt;/div&gt;" style="text;strokeColor=none;fillColor=none;align=left;verticalAlign=top;spacingLeft=4;spacingRight=4;overflow=hidden;rotatable=0;points=[[0,0.5],[1,0.5]];portConstraint=eastwest;whiteSpace=wrap;html=1;" parent="Kz519cWDDe5uX1cGoVlB-72" vertex="1">
          <mxGeometry y="26" width="160" height="64" as="geometry" />
        </mxCell>
        <mxCell id="Kz519cWDDe5uX1cGoVlB-74" value="" style="line;strokeWidth=1;fillColor=none;align=left;verticalAlign=middle;spacingTop=-1;spacingLeft=3;spacingRight=3;rotatable=0;labelPosition=right;points=[];portConstraint=eastwest;strokeColor=inherit;" parent="Kz519cWDDe5uX1cGoVlB-72" vertex="1">
          <mxGeometry y="90" width="160" height="8" as="geometry" />
        </mxCell>
        <mxCell id="Kz519cWDDe5uX1cGoVlB-75" value="+ generate_note()&lt;div&gt;+ print_note()&lt;/div&gt;" style="text;strokeColor=none;fillColor=none;align=left;verticalAlign=top;spacingLeft=4;spacingRight=4;overflow=hidden;rotatable=0;points=[[0,0.5],[1,0.5]];portConstraint=eastwest;whiteSpace=wrap;html=1;" parent="Kz519cWDDe5uX1cGoVlB-72" vertex="1">
          <mxGeometry y="98" width="160" height="52" as="geometry" />
        </mxCell>
        <mxCell id="Kz519cWDDe5uX1cGoVlB-76" value="" style="endArrow=classic;html=1;rounded=0;fontSize=12;startSize=8;endSize=8;curved=1;entryX=0.5;entryY=0;entryDx=0;entryDy=0;" parent="WIyWlLk6GJQsqaUBKTNV-1" target="Kz519cWDDe5uX1cGoVlB-60" edge="1">
          <mxGeometry width="50" height="50" relative="1" as="geometry">
            <mxPoint x="390" y="-340" as="sourcePoint" />
            <mxPoint x="420" y="-230" as="targetPoint" />
          </mxGeometry>
        </mxCell>
        <mxCell id="Kz519cWDDe5uX1cGoVlB-77" value="Associated with" style="text;html=1;align=center;verticalAlign=middle;whiteSpace=wrap;rounded=0;" parent="WIyWlLk6GJQsqaUBKTNV-1" vertex="1">
          <mxGeometry x="400" y="-305.5" width="60" height="30" as="geometry" />
        </mxCell>
        <mxCell id="Kz519cWDDe5uX1cGoVlB-78" value="" style="endArrow=classic;html=1;rounded=0;fontSize=12;startSize=8;endSize=8;curved=1;exitX=-0.012;exitY=1;exitDx=0;exitDy=0;exitPerimeter=0;entryX=0.75;entryY=0;entryDx=0;entryDy=0;" parent="WIyWlLk6GJQsqaUBKTNV-1" source="Kz519cWDDe5uX1cGoVlB-63" target="Kz519cWDDe5uX1cGoVlB-64" edge="1">
          <mxGeometry width="50" height="50" relative="1" as="geometry">
            <mxPoint x="370" y="-180" as="sourcePoint" />
            <mxPoint x="420" y="-230" as="targetPoint" />
          </mxGeometry>
        </mxCell>
        <mxCell id="Kz519cWDDe5uX1cGoVlB-79" value="" style="endArrow=classic;html=1;rounded=0;fontSize=12;startSize=8;endSize=8;curved=1;exitX=0.981;exitY=0.981;exitDx=0;exitDy=0;exitPerimeter=0;entryX=0.25;entryY=0;entryDx=0;entryDy=0;" parent="WIyWlLk6GJQsqaUBKTNV-1" source="Kz519cWDDe5uX1cGoVlB-63" target="Kz519cWDDe5uX1cGoVlB-68" edge="1">
          <mxGeometry width="50" height="50" relative="1" as="geometry">
            <mxPoint x="370" y="-180" as="sourcePoint" />
            <mxPoint x="420" y="-230" as="targetPoint" />
          </mxGeometry>
        </mxCell>
        <mxCell id="Kz519cWDDe5uX1cGoVlB-80" value="has a" style="text;html=1;align=center;verticalAlign=middle;whiteSpace=wrap;rounded=0;" parent="WIyWlLk6GJQsqaUBKTNV-1" vertex="1">
          <mxGeometry x="485" y="-90" width="60" height="30" as="geometry" />
        </mxCell>
        <mxCell id="Kz519cWDDe5uX1cGoVlB-81" value="has a" style="text;html=1;align=center;verticalAlign=middle;whiteSpace=wrap;rounded=0;" parent="WIyWlLk6GJQsqaUBKTNV-1" vertex="1">
          <mxGeometry x="230" y="-80" width="60" height="30" as="geometry" />
        </mxCell>
        <mxCell id="7Dt9_esI1X2MVXfkkOlE-0" value="Admin" style="shape=umlActor;verticalLabelPosition=bottom;verticalAlign=top;html=1;outlineConnect=0;" vertex="1" parent="WIyWlLk6GJQsqaUBKTNV-1">
          <mxGeometry x="140" y="-1090" width="70" height="100" as="geometry" />
        </mxCell>
        <mxCell id="7Dt9_esI1X2MVXfkkOlE-4" value="" style="endArrow=none;html=1;rounded=0;" edge="1" parent="WIyWlLk6GJQsqaUBKTNV-1">
          <mxGeometry width="50" height="50" relative="1" as="geometry">
            <mxPoint x="250" y="-1120" as="sourcePoint" />
            <mxPoint x="580" y="-1120" as="targetPoint" />
          </mxGeometry>
        </mxCell>
        <mxCell id="7Dt9_esI1X2MVXfkkOlE-5" value="" style="endArrow=none;html=1;rounded=0;" edge="1" parent="WIyWlLk6GJQsqaUBKTNV-1">
          <mxGeometry width="50" height="50" relative="1" as="geometry">
            <mxPoint x="250" y="-1120" as="sourcePoint" />
            <mxPoint x="250" y="-810" as="targetPoint" />
          </mxGeometry>
        </mxCell>
        <mxCell id="7Dt9_esI1X2MVXfkkOlE-6" value="Delivery management system" style="text;html=1;align=center;verticalAlign=middle;resizable=0;points=[];autosize=1;strokeColor=none;fillColor=none;" vertex="1" parent="WIyWlLk6GJQsqaUBKTNV-1">
          <mxGeometry x="323" y="-1150" width="180" height="30" as="geometry" />
        </mxCell>
        <mxCell id="7Dt9_esI1X2MVXfkkOlE-7" value="" style="endArrow=none;dashed=1;html=1;rounded=0;entryX=0.5;entryY=1;entryDx=0;entryDy=0;exitX=0.5;exitY=0;exitDx=0;exitDy=0;" edge="1" parent="WIyWlLk6GJQsqaUBKTNV-1" source="Kz519cWDDe5uX1cGoVlB-46" target="Kz519cWDDe5uX1cGoVlB-45">
          <mxGeometry width="50" height="50" relative="1" as="geometry">
            <mxPoint x="490" y="-810" as="sourcePoint" />
            <mxPoint x="540" y="-860" as="targetPoint" />
          </mxGeometry>
        </mxCell>
        <mxCell id="7Dt9_esI1X2MVXfkkOlE-8" value="" style="endArrow=none;dashed=1;html=1;rounded=0;entryX=0.5;entryY=1;entryDx=0;entryDy=0;exitX=0.5;exitY=0;exitDx=0;exitDy=0;" edge="1" parent="WIyWlLk6GJQsqaUBKTNV-1">
          <mxGeometry width="50" height="50" relative="1" as="geometry">
            <mxPoint x="329.40999999999997" y="-910" as="sourcePoint" />
            <mxPoint x="329.40999999999997" y="-950" as="targetPoint" />
          </mxGeometry>
        </mxCell>
        <mxCell id="7Dt9_esI1X2MVXfkkOlE-10" value="" style="endArrow=none;html=1;rounded=0;" edge="1" parent="WIyWlLk6GJQsqaUBKTNV-1">
          <mxGeometry width="50" height="50" relative="1" as="geometry">
            <mxPoint x="580" y="-810" as="sourcePoint" />
            <mxPoint x="580" y="-1120" as="targetPoint" />
          </mxGeometry>
        </mxCell>
        <mxCell id="7Dt9_esI1X2MVXfkkOlE-11" value="" style="endArrow=none;html=1;rounded=0;" edge="1" parent="WIyWlLk6GJQsqaUBKTNV-1">
          <mxGeometry width="50" height="50" relative="1" as="geometry">
            <mxPoint x="580" y="-810" as="sourcePoint" />
            <mxPoint x="250" y="-810" as="targetPoint" />
          </mxGeometry>
        </mxCell>
        <mxCell id="7Dt9_esI1X2MVXfkkOlE-14" style="edgeStyle=orthogonalEdgeStyle;rounded=0;orthogonalLoop=1;jettySize=auto;html=1;exitX=0;exitY=0.3333333333333333;exitDx=0;exitDy=0;exitPerimeter=0;" edge="1" parent="WIyWlLk6GJQsqaUBKTNV-1" source="7Dt9_esI1X2MVXfkkOlE-12">
          <mxGeometry relative="1" as="geometry">
            <mxPoint x="630" y="-1056.9411764705883" as="targetPoint" />
          </mxGeometry>
        </mxCell>
        <mxCell id="7Dt9_esI1X2MVXfkkOlE-12" value="Recipient" style="shape=umlActor;verticalLabelPosition=bottom;verticalAlign=top;html=1;outlineConnect=0;" vertex="1" parent="WIyWlLk6GJQsqaUBKTNV-1">
          <mxGeometry x="630" y="-1090" width="70" height="100" as="geometry" />
        </mxCell>
        <mxCell id="7Dt9_esI1X2MVXfkkOlE-13" value="" style="endArrow=classic;html=1;rounded=0;" edge="1" parent="WIyWlLk6GJQsqaUBKTNV-1">
          <mxGeometry width="50" height="50" relative="1" as="geometry">
            <mxPoint x="630" y="-1040" as="sourcePoint" />
            <mxPoint x="550" y="-900" as="targetPoint" />
          </mxGeometry>
        </mxCell>
        <mxCell id="7Dt9_esI1X2MVXfkkOlE-15" value="" style="endArrow=classic;html=1;rounded=0;" edge="1" parent="WIyWlLk6GJQsqaUBKTNV-1" source="7Dt9_esI1X2MVXfkkOlE-0" target="Kz519cWDDe5uX1cGoVlB-41">
          <mxGeometry width="50" height="50" relative="1" as="geometry">
            <mxPoint x="430" y="-810" as="sourcePoint" />
            <mxPoint x="480" y="-860" as="targetPoint" />
          </mxGeometry>
        </mxCell>
        <mxCell id="7Dt9_esI1X2MVXfkkOlE-16" value="" style="endArrow=classic;html=1;rounded=0;entryX=0;entryY=0;entryDx=0;entryDy=0;" edge="1" parent="WIyWlLk6GJQsqaUBKTNV-1" target="Kz519cWDDe5uX1cGoVlB-42">
          <mxGeometry width="50" height="50" relative="1" as="geometry">
            <mxPoint x="210" y="-1020" as="sourcePoint" />
            <mxPoint x="480" y="-860" as="targetPoint" />
          </mxGeometry>
        </mxCell>
        <mxCell id="7Dt9_esI1X2MVXfkkOlE-17" value="" style="endArrow=classic;html=1;rounded=0;entryX=0;entryY=0;entryDx=0;entryDy=0;" edge="1" parent="WIyWlLk6GJQsqaUBKTNV-1" target="Kz519cWDDe5uX1cGoVlB-45">
          <mxGeometry width="50" height="50" relative="1" as="geometry">
            <mxPoint x="210" y="-1030" as="sourcePoint" />
            <mxPoint x="480" y="-860" as="targetPoint" />
          </mxGeometry>
        </mxCell>
      </root>
    </mxGraphModel>
  </diagram>
</mxfile>
